<svg xmlns="http://www.w3.org/2000/svg" viewBox="-9.209 -11.162 100 100" xml:space="preserve" width="100" height="100"><path d="M70.139 84.036H11.338l-18.17-55.921L40.739-6.448l47.57 34.563zm-58.166-.874h57.53l17.78-54.714L40.738-5.367-5.803 28.448z"/><path d="M59.25 70.325H22.228l-11.44-35.207 29.95-21.76 29.95 21.76zm-36.386-.875 35.749-35.207 11.048 1.209-28.923-21.015-28.92 21.015z"/><path d="M49.354 58.145H32.122l-5.324-16.388L40.74 31.63l13.94 10.127zm-16.596-.875H48.72l4.932-15.178-12.913-9.381-12.912 9.381z"/><path d="m-6.209 28.012 47.057 18.923-.217.54-47.057-18.922z"/><path d="m40.522 47.032.455.365-29.103 36.38-.456-.364z"/><path d="m40.97 47.024 29.085 36.395-.455.364-29.085-36.395z"/><path d="m87.693 28.03.218.543L40.839 47.46l-.217-.542z"/><path d="M40.448-5.908h.583v53.112h-.583z"/><path d="M89.035 28.524c0-.94-.762-1.701-1.702-1.701-.38 0-.73.13-1.013.343l-44.36-5.042a1.694 1.694 0 0 0-1.331-.654c-.73 0-1.347.463-1.589 1.109L12.11 34.03a1.702 1.702 0 1 0-1.313 3.135l5.053 38.548c-.266.301-.433.69-.433 1.123a1.7 1.7 0 0 0 3.116.944l39.191-6.666c.284.214.634.345 1.016.345.88 0 1.594-.67 1.683-1.526l27.07-39.725a1.696 1.696 0 0 0 1.542-1.685zM58.873 68.07c-.044-.004-.086-.014-.132-.014-.59 0-1.109.302-1.414.758l-39.155 6.661L13.02 36.18l26.928-11.45a1.676 1.676 0 0 0 1.796-.282L85.23 29.39z"/></svg>